<svg width="34" height="32" viewBox="0 0 34 32" fill="none" xmlns="http://www.w3.org/2000/svg">
<path d="M32.4721 10.4225C33.8855 14.0493 33.8739 18.0422 32.4395 21.6615C31.0051 25.2809 28.2451 28.2813 24.6707 30.1071C21.0962 31.9329 16.9497 32.4603 12.9991 31.5916C9.0485 30.7229 5.56162 28.517 3.18434 25.3825C0.807072 22.248 -0.299481 18.3974 0.0696617 14.5438C0.438804 10.6903 2.25862 7.095 5.19202 4.42399C8.12542 1.75298 11.9736 0.187251 16.0237 0.0168318C20.0738 -0.153588 24.0514 1.08285 27.2197 3.49712L30.3391 0.519609C30.6884 0.186731 31.1618 -0.00016501 31.6553 1.09317e-07C32.1489 0.000165229 32.6221 0.187378 32.9711 0.52049C33.3201 0.853601 33.5163 1.30535 33.5164 1.77644C33.5166 2.24753 33.3208 2.69941 32.9721 3.03276L23.3443 12.2225L18.0781 17.2492C17.7288 17.582 17.2554 17.7689 16.7619 17.7688C16.2683 17.7686 15.7951 17.5814 15.4461 17.2483C15.0971 16.9152 14.9009 16.4634 14.9008 15.9923C14.9006 15.5212 15.0964 15.0694 15.4451 14.736L19.1705 11.1802C18.1208 10.7014 16.9407 10.5474 15.7949 10.7396C14.6491 10.9318 13.5948 11.4606 12.7791 12.2523C11.9633 13.044 11.4269 14.059 11.2446 15.1558C11.0624 16.2525 11.2434 17.3761 11.7624 18.3699C12.2814 19.3637 13.1125 20.1781 14.1397 20.6993C15.167 21.2205 16.3391 21.4226 17.4924 21.2774C18.6458 21.1322 19.7229 20.6469 20.5733 19.8892C21.4238 19.1316 22.0053 18.1394 22.2365 17.0511C22.2847 16.8222 22.3795 16.6046 22.5158 16.4107C22.6521 16.2168 22.827 16.0505 23.0306 15.9212C23.2343 15.7918 23.4626 15.7021 23.7026 15.657C23.9426 15.612 24.1895 15.6125 24.4293 15.6586C24.6691 15.7046 24.897 15.7954 25.1 15.9255C25.303 16.0557 25.4772 16.2228 25.6126 16.4173C25.7479 16.6117 25.8418 16.8297 25.8888 17.0589C25.9359 17.288 25.9351 17.5237 25.8867 17.7525C25.4911 19.6168 24.4789 21.3106 22.9991 22.5846C21.5192 23.8587 19.65 24.6455 17.6665 24.8295C15.683 25.0134 13.6901 24.5847 11.981 23.6064C10.2719 22.6281 8.93706 21.1519 8.17286 19.3952C7.40867 17.6384 7.25553 15.6939 7.73599 13.8478C8.21646 12.0018 9.30513 10.3517 10.8418 9.14054C12.3784 7.92937 14.2818 7.22107 16.2718 7.1199C18.2618 7.01874 20.2333 7.53006 21.896 8.57859L24.5647 6.03131C22.0553 4.24388 18.9551 3.37939 15.8322 3.59624C12.7094 3.8131 9.77293 5.09678 7.56097 7.21207C5.349 9.32736 4.00964 12.1326 3.78829 15.1138C3.56694 18.095 4.47844 21.0525 6.35576 23.4444C8.23308 25.8364 10.9505 27.5025 14.0101 28.1376C17.0697 28.7726 20.2667 28.3341 23.0151 26.9024C25.7635 25.4706 27.8795 23.1415 28.9751 20.3417C30.0708 17.542 30.0729 14.4592 28.981 11.6581C28.8093 11.2162 28.8286 10.7274 29.0346 10.299C29.2405 9.87073 29.6163 9.53805 30.0793 9.3742C30.5422 9.21035 31.0544 9.22874 31.5031 9.42534C31.9519 9.62194 32.3004 9.98064 32.4721 10.4225Z" fill="#5ED4EF"/>
</svg>
