<svg width="40" height="40" viewBox="0 0 40 40" fill="none" xmlns="http://www.w3.org/2000/svg">
<path d="M10.7145 13.5871L4.86707 19.6293L10.7145 25.6715C11.1016 26.0715 11.3446 26.6457 11.3903 27.2678C11.4359 27.89 11.2803 28.5092 10.9578 28.9891C10.6352 29.469 10.1722 29.7704 9.6704 29.827C9.16864 29.8836 8.66931 29.6907 8.28226 29.2907L0.683547 21.4389C0.469605 21.2179 0.297477 20.9412 0.179353 20.6285C0.0612298 20.3157 0 19.9747 0 19.6293C0 19.284 0.0612298 18.9429 0.179353 18.6302C0.297477 18.3175 0.469605 18.0408 0.683547 17.8197L8.28226 9.96795C8.47391 9.76992 8.69514 9.62063 8.93331 9.52862C9.17149 9.43661 9.42195 9.40366 9.6704 9.43167C9.91884 9.45968 10.1604 9.54809 10.3813 9.69186C10.6022 9.83563 10.7981 10.0319 10.9578 10.2696C11.1175 10.5072 11.2379 10.7815 11.3121 11.0769C11.3863 11.3722 11.4129 11.6828 11.3903 11.9908C11.3677 12.2989 11.2964 12.5984 11.1804 12.8723C11.0645 13.1462 10.9062 13.3891 10.7145 13.5871ZM38.5765 17.8197L30.9777 9.96795C30.7861 9.76992 30.5649 9.62063 30.3267 9.52862C30.0885 9.43661 29.838 9.40366 29.5896 9.43167C29.3412 9.45968 29.0996 9.54809 28.8787 9.69186C28.6578 9.83563 28.4619 10.0319 28.3022 10.2696C28.1425 10.5072 28.0221 10.7815 27.9479 11.0769C27.8737 11.3722 27.8471 11.6828 27.8697 11.9908C27.8923 12.2989 27.9636 12.5984 28.0796 12.8723C28.1955 13.1462 28.3538 13.3891 28.5455 13.5871L34.3929 19.6293L28.5455 25.6715C28.3538 25.8696 28.1955 26.1125 28.0796 26.3864C27.9636 26.6603 27.8923 26.9598 27.8697 27.2678C27.8241 27.89 27.9797 28.5092 28.3022 28.9891C28.6248 29.469 29.0878 29.7704 29.5896 29.827C29.838 29.855 30.0885 29.8221 30.3267 29.7301C30.5649 29.638 30.7861 29.4888 30.9777 29.2907L38.5765 21.4389C38.7904 21.2179 38.9625 20.9412 39.0806 20.6285C39.1988 20.3157 39.26 19.9747 39.26 19.6293C39.26 19.284 39.1988 18.9429 39.0806 18.6302C38.9625 18.3175 38.7904 18.0408 38.5765 17.8197ZM25.345 0.141699C24.8715 -0.0716804 24.3491 -0.0431424 23.8925 0.221037C23.436 0.485217 23.0828 0.963408 22.9105 1.55046L12.7789 36.0984C12.6935 36.3891 12.6551 36.6979 12.666 37.007C12.6769 37.3162 12.7367 37.6196 12.8422 37.9001C12.9477 38.1805 13.0967 38.4324 13.2807 38.6414C13.4647 38.8505 13.6802 39.0125 13.9147 39.1182C14.1492 39.2239 14.3982 39.2713 14.6476 39.2577C14.8969 39.2441 15.1416 39.1697 15.3677 39.0387C15.5938 38.9078 15.7969 38.7229 15.9653 38.4946C16.1338 38.2663 16.2643 37.9991 16.3495 37.7082L26.4811 3.16031C26.5663 2.86961 26.6046 2.56093 26.5936 2.25191C26.5827 1.94288 26.5228 1.63955 26.4173 1.35925C26.3118 1.07894 26.1628 0.827146 25.9788 0.618238C25.7948 0.40933 25.5795 0.247402 25.345 0.141699Z" fill="#5ED4EF"/>
</svg>
