<svg width="34" height="40" viewBox="0 0 34 40" fill="none" xmlns="http://www.w3.org/2000/svg">
<path d="M26.7803 25.6964C25.8264 25.6962 24.8832 25.8976 24.0126 26.2875C23.142 26.6775 22.3637 27.247 21.7288 27.9589L13.0002 22.3476C13.3769 21.4902 13.5714 20.564 13.5714 19.6274C13.5714 18.6909 13.3769 17.7647 13.0002 16.9073L21.7288 11.296C22.8662 12.5639 24.4396 13.3568 26.1355 13.5165C27.8314 13.6762 29.5251 13.191 30.8793 12.1577C32.2334 11.1244 33.1485 9.61882 33.4422 7.94096C33.7359 6.2631 33.3866 4.53619 32.464 3.10436C31.5413 1.67252 30.113 0.640899 28.4637 0.215072C26.8145 -0.210754 25.0653 0.000480814 23.5648 0.806683C22.0643 1.61289 20.9226 2.95486 20.3674 4.56517C19.8121 6.17549 19.8839 7.93591 20.5686 9.49561L11.8399 15.1069C10.9243 14.0826 9.71919 13.3605 8.38414 13.0362C7.04909 12.7119 5.64703 12.8006 4.36352 13.2907C3.08001 13.7807 1.97558 14.649 1.19639 15.7805C0.417203 16.9121 0 18.2536 0 19.6274C0 21.0013 0.417203 22.3428 1.19639 23.4744C1.97558 24.6059 3.08001 25.4742 4.36352 25.9642C5.64703 26.4543 7.04909 26.543 8.38414 26.2187C9.71919 25.8944 10.9243 25.1723 11.8399 24.148L20.5686 29.7593C19.983 31.0975 19.8451 32.589 20.1754 34.0119C20.5057 35.4348 21.2867 36.713 22.402 37.6563C23.5173 38.5996 24.9073 39.1576 26.3653 39.2472C27.8233 39.3369 29.2712 38.9534 30.4937 38.1538C31.7162 37.3542 32.6478 36.1813 33.15 34.8096C33.6521 33.4379 33.698 31.9407 33.2807 30.5409C32.8634 29.141 32.0053 27.9133 30.8341 27.0404C29.6628 26.1675 28.2411 25.6962 26.7803 25.6964ZM26.7803 2.13455C27.6982 2.13455 28.5955 2.40673 29.3587 2.91669C30.1219 3.42665 30.7168 4.15147 31.068 4.9995C31.4193 5.84752 31.5112 6.78067 31.3321 7.68093C31.1531 8.58119 30.711 9.40813 30.062 10.0572C29.4129 10.7062 28.586 11.1482 27.6857 11.3273C26.7855 11.5064 25.8523 11.4145 25.0043 11.0632C24.1563 10.712 23.4315 10.1171 22.9215 9.35391C22.4115 8.5907 22.1394 7.69342 22.1394 6.77552C22.1407 5.54508 22.6301 4.36542 23.5002 3.49536C24.3702 2.62531 25.5499 2.13591 26.7803 2.13455ZM6.78844 24.2684C5.87054 24.2684 4.97326 23.9962 4.21005 23.4863C3.44685 22.9763 2.852 22.2515 2.50074 21.4035C2.14947 20.5554 2.05757 19.6223 2.23664 18.722C2.41571 17.8218 2.85772 16.9948 3.50677 16.3458C4.15583 15.6967 4.98277 15.2547 5.88303 15.0756C6.78329 14.8966 7.71644 14.9885 8.56446 15.3397C9.41249 15.691 10.1373 16.2859 10.6473 17.0491C11.1572 17.8123 11.4294 18.7096 11.4294 19.6274C11.428 20.8579 10.9387 22.0376 10.0686 22.9076C9.19854 23.7777 8.01888 24.2671 6.78844 24.2684ZM26.7803 37.1204C25.8624 37.1204 24.9651 36.8482 24.2019 36.3382C23.4387 35.8283 22.8439 35.1034 22.4926 34.2554C22.1414 33.4074 22.0495 32.4742 22.2285 31.574C22.4076 30.6737 22.8496 29.8468 23.4987 29.1977C24.1477 28.5487 24.9747 28.1067 25.8749 27.9276C26.7752 27.7485 27.7083 27.8404 28.5564 28.1917C29.4044 28.5429 30.1292 29.1378 30.6392 29.901C31.1491 30.6642 31.4213 31.5615 31.4213 32.4794C31.4199 33.7098 30.9305 34.8895 30.0605 35.7595C29.1904 36.6296 28.0108 37.119 26.7803 37.1204Z" fill="#5ED4EF"/>
</svg>
