<svg width="26" height="15" viewBox="0 0 26 15" fill="none" xmlns="http://www.w3.org/2000/svg">
<path d="M13.1438 14.265C12.9935 14.2652 12.8446 14.2357 12.7056 14.1781C12.5667 14.1206 12.4406 14.0362 12.3344 13.9297L0.88715 2.48251C0.78085 2.37621 0.696527 2.25002 0.638996 2.11114C0.581465 1.97226 0.551853 1.8234 0.551849 1.67307C0.551843 1.36947 0.672441 1.0783 0.887114 0.86362C1.10179 0.648937 1.39295 0.528327 1.69655 0.52832C2.00015 0.528314 2.29132 0.648912 2.506 0.863585L13.1438 11.5014L23.7816 0.863585C23.9963 0.648912 24.2875 0.528313 24.5911 0.52832C24.8947 0.528327 25.1859 0.648939 25.4005 0.863622C25.6152 1.07831 25.7358 1.36947 25.7358 1.67307C25.7358 1.97668 25.6152 2.26784 25.4005 2.48251L13.9532 13.9297C13.8471 14.0362 13.7209 14.1206 13.582 14.1781C13.4431 14.2357 13.2942 14.2652 13.1438 14.265Z" fill="#5ED4EF"/>
</svg>
